HIERARCHY
ROOT joint_Root
{
	OFFSET 0.0 0.0 0.0
	CHANNELS 6 Xposition Yposition Zposition Zrotation Xrotation Yrotation 
	JOINT Hips
	{
		OFFSET 4.5925 91.4895 -427.239
		CHANNELS 6 Xposition Yposition Zposition Zrotation Xrotation Yrotation 
		JOINT Spine
		{
			OFFSET 15.7357 0.0 0.0
			CHANNELS 6 Xposition Yposition Zposition Zrotation Xrotation Yrotation 
			JOINT Chest
			{
				OFFSET 8.98455 -0.406207 0.0
				CHANNELS 6 Xposition Yposition Zposition Zrotation Xrotation Yrotation 
				JOINT Neck
				{
					OFFSET 16.3773 0.0 0.0
					CHANNELS 6 Xposition Yposition Zposition Zrotation Xrotation Yrotation 
					JOINT Head
					{
						OFFSET 6.45672 0.0 0.0
						CHANNELS 6 Xposition Yposition Zposition Zrotation Xrotation Yrotation 
						End Site
						{
							OFFSET 0.0 0.0 0.0
						}
					}
				}
				JOINT Shoulder_L
				{
					OFFSET 12.9942 -0.242716 4.98039
					CHANNELS 6 Xposition Yposition Zposition Zrotation Xrotation Yrotation 
					JOINT UpperArm_L
					{
						OFFSET 5.34809 0.0 0.0
						CHANNELS 6 Xposition Yposition Zposition Zrotation Xrotation Yrotation 
						JOINT LowerArm_L
						{
							OFFSET 24.3286 1.87007e-05 0.0
							CHANNELS 6 Xposition Yposition Zposition Zrotation Xrotation Yrotation 
							JOINT Hand_L
							{
								OFFSET 22.2916 0.0 0.0
								CHANNELS 6 Xposition Yposition Zposition Zrotation Xrotation Yrotation 
								End Site
								{
									OFFSET 0.0 0.0 0.0
								}
							}
						}
					}
				}
				JOINT Shoulder_R
				{
					OFFSET 12.9945 -0.242716 -4.98039
					CHANNELS 6 Xposition Yposition Zposition Zrotation Xrotation Yrotation 
					JOINT UpperArm_R
					{
						OFFSET -5.34813 0.0 0.0
						CHANNELS 6 Xposition Yposition Zposition Zrotation Xrotation Yrotation 
						JOINT LowerArm_R
						{
							OFFSET -24.3289 0.000322201 0.0
							CHANNELS 6 Xposition Yposition Zposition Zrotation Xrotation Yrotation 
							JOINT Hand_R
							{
								OFFSET -22.2915 -0.000108084 0.0
								CHANNELS 6 Xposition Yposition Zposition Zrotation Xrotation Yrotation 
								End Site
								{
									OFFSET 0.0 0.0 0.0
								}
							}
						}
					}
				}
			}
		}
		JOINT UpperLeg_L
		{
			OFFSET -2.19248 -6.46944 0.0
			CHANNELS 6 Xposition Yposition Zposition Zrotation Xrotation Yrotation 
			JOINT LowerLeg_L
			{
				OFFSET 39.0811 0.0 -1.23785e-05
				CHANNELS 6 Xposition Yposition Zposition Zrotation Xrotation Yrotation 
				JOINT Foot_L
				{
					OFFSET 40.9854 0.0 -1.26872e-05
					CHANNELS 6 Xposition Yposition Zposition Zrotation Xrotation Yrotation 
					JOINT Toes_L
					{
						OFFSET 11.7543 0.0 0.0
						CHANNELS 6 Xposition Yposition Zposition Zrotation Xrotation Yrotation 
						End Site
						{
							OFFSET 0.0 0.0 0.0
						}
					}
				}
			}
		}
		JOINT UpperLeg_R
		{
			OFFSET -2.19251 6.46944 0.0
			CHANNELS 6 Xposition Yposition Zposition Zrotation Xrotation Yrotation 
			JOINT LowerLeg_R
			{
				OFFSET -39.0811 -0.00228153 -0.0401928
				CHANNELS 6 Xposition Yposition Zposition Zrotation Xrotation Yrotation 
				JOINT Foot_R
				{
					OFFSET -40.9854 0.0 0.0
					CHANNELS 6 Xposition Yposition Zposition Zrotation Xrotation Yrotation 
					JOINT Toes_R
					{
						OFFSET -11.7543 0.0 0.0
						CHANNELS 6 Xposition Yposition Zposition Zrotation Xrotation Yrotation 
						End Site
						{
							OFFSET 0.0 0.0 0.0
						}
					}
				}
			}
		}
	}
}
MOTION
Frames:	4
Frame Time:	0.0333333
0.000000 0.000000 0.000000 0.000000 0.000000 -0.000000 1.192090 90.836100 -0.270727 87.180600 -6.394200 13.898400 15.735700 0.000005 -0.000001 88.957100 82.406600 -89.088400 8.984550 -0.406207 -0.000000 7.417990 -0.274991 -0.244583 16.377300 -0.000001 -0.000001 34.138700 -3.965750 -2.973980 6.456720 -0.000001 -0.000000 16.698900 -2.902860 3.420580 12.994200 -0.242716 4.980390 -85.856800 -8.648300 -64.277700 5.348090 -0.000007 -0.000001 -38.819300 -46.299800 -74.779900 24.328600 0.000019 0.000005 14.147200 21.243600 -34.824400 22.291600 -0.000001 0.000005 16.975000 5.296550 0.167447 12.994500 -0.242716 -4.980390 92.025800 -6.243860 -71.983800 -5.348130 -0.000001 -0.000004 -39.886500 -47.333900 -69.481500 -24.328900 0.000322 -0.000009 1.733300 2.838950 -31.439500 -22.291500 -0.000108 -0.000004 24.956600 5.422410 -3.680150 -2.192480 -6.469440 -0.000000 -173.180000 -13.065100 3.865410 39.081100 -0.000007 -0.000012 -0.162151 0.261660 31.786800 40.985400 -0.000006 -0.000013 1.520900 2.812970 -71.422600 11.754300 -0.000000 0.000003 -0.000139 -0.001361 -16.629400 -2.192510 6.469440 -0.000001 173.124000 19.857600 -173.810000 -39.081100 -0.002282 -0.040193 -0.221329 0.420831 28.093200 -40.985400 0.000008 0.000006 2.261000 16.796200 -69.062100 -11.754300 -0.000006 -0.000006 -0.001581 -0.023348 -17.522500
0.000000 0.000000 0.000000 0.000000 0.000000 -0.000000 1.459410 90.905900 -0.228792 87.634100 -6.542640 13.833500 15.735700 0.000005 -0.000001 89.030500 82.404200 -89.373700 8.984550 -0.406207 -0.000000 7.422840 -0.255039 -0.669044 16.377300 -0.000001 -0.000001 34.186700 -3.891640 -3.342980 6.456720 -0.000001 -0.000000 16.528700 -2.785860 2.605950 12.994200 -0.242716 4.980390 -85.946300 -8.449120 -64.250600 5.348090 -0.000007 -0.000001 -41.299400 -47.590700 -74.318800 24.328600 0.000019 0.000005 13.260600 21.966400 -32.211600 22.291600 -0.000001 0.000005 16.900000 5.261020 1.138830 12.994500 -0.242716 -4.980390 91.972800 -6.100370 -72.040400 -5.348130 -0.000001 -0.000004 -41.809800 -48.672800 -68.831600 -24.328900 0.000322 -0.000009 1.625350 2.829830 -29.904700 -22.291500 -0.000108 -0.000004 24.928100 5.400460 -2.952630 -2.192480 -6.469440 -0.000000 -173.854000 -13.236300 4.119700 39.081100 -0.000007 -0.000012 -0.154198 0.255370 31.124700 40.985400 -0.000006 -0.000013 1.663230 2.640570 -71.155300 11.754300 -0.000000 0.000003 -0.000149 -0.001446 -16.632500 -2.192510 6.469440 -0.000001 172.582000 19.557400 -173.889000 -39.081100 -0.002282 -0.040193 -0.217983 0.417590 27.920400 -40.985400 0.000008 0.000006 2.024050 16.848500 -68.896400 -11.754300 -0.000006 -0.000006 -0.001530 -0.022669 -17.494900
0.000000 0.000000 0.000000 0.000000 0.000000 -0.000000 1.702880 90.970500 -0.180070 88.044200 -6.713310 13.732500 15.735700 0.000005 -0.000001 89.257600 82.415200 -89.793200 8.984550 -0.406207 -0.000000 7.401620 -0.194115 -1.057550 16.377300 -0.000001 -0.000001 34.144600 -3.872370 -3.735770 6.456720 -0.000001 -0.000000 16.451700 -2.741840 1.867380 12.994200 -0.242716 4.980390 -86.059000 -8.198900 -64.215800 5.348090 -0.000007 -0.000001 -44.690900 -48.918400 -74.762700 24.328600 0.000019 0.000005 12.591000 22.492200 -30.278900 22.291600 -0.000001 0.000005 16.996300 5.220050 2.210830 12.994500 -0.242716 -4.980390 91.914000 -5.927180 -72.067300 -5.348130 -0.000001 -0.000004 -43.705800 -50.029100 -68.415600 -24.328900 0.000322 -0.000009 1.745200 3.155170 -28.983600 -22.291500 -0.000108 -0.000004 25.238200 5.381060 -2.332810 -2.192480 -6.469440 -0.000000 -174.400000 -13.606300 4.338380 39.081100 -0.000007 -0.000012 -0.143585 0.243773 30.498900 40.985400 -0.000006 -0.000013 1.833240 2.647790 -70.908900 11.754300 -0.000000 0.000003 -0.000152 -0.001466 -16.633300 -2.192510 6.469440 -0.000001 172.125000 19.260100 -174.018000 -39.081100 -0.002282 -0.040193 -0.215414 0.415600 27.757100 -40.985400 0.000008 0.000006 1.813020 16.892600 -68.737100 -11.754300 -0.000006 -0.000006 -0.001640 -0.024112 -17.553600
0.000000 0.000000 0.000000 0.000000 0.000000 -0.000000 1.935700 91.025400 -0.123233 88.407400 -6.872480 13.688500 15.735700 0.000005 -0.000001 89.428900 82.421900 -90.129200 8.984550 -0.406207 -0.000000 7.388840 -0.148201 -1.389600 16.377300 -0.000001 -0.000001 34.099500 -3.860300 -4.070820 6.456720 -0.000001 -0.000000 16.320800 -2.744670 1.104880 12.994200 -0.242716 4.980390 -86.163500 -7.946890 -64.124600 5.348090 -0.000007 -0.000001 -47.628900 -50.092900 -75.127600 24.328600 0.000019 0.000005 11.722900 22.122600 -28.855100 22.291600 -0.000001 0.000005 17.166700 5.193560 2.880150 12.994500 -0.242716 -4.980390 91.862500 -5.775570 -72.092600 -5.348130 -0.000001 -0.000004 -45.235100 -51.246300 -68.045700 -24.328900 0.000322 -0.000009 1.788120 3.292690 -28.540100 -22.291500 -0.000108 -0.000004 25.595700 5.370240 -1.994500 -2.192480 -6.469440 -0.000000 -174.848000 -14.063800 4.628420 39.081100 -0.000007 -0.000012 -0.128055 0.222553 29.916000 40.985400 -0.000006 -0.000013 2.032880 2.773490 -70.713500 11.754300 -0.000000 0.000003 -0.000145 -0.001408 -16.631100 -2.192510 6.469440 -0.000001 171.634000 19.082800 -174.044000 -39.081100 -0.002282 -0.040193 -0.214951 0.417623 27.592800 -40.985400 0.000008 0.000006 1.633730 17.070800 -68.604400 -11.754300 -0.000006 -0.000006 -0.001718 -0.025123 -17.594700
